<mxfile host="app.diagrams.net" modified="2023-12-22T13:32:43.747Z" agent="Mozilla/5.0 (Macintosh; Intel Mac OS X 10_15_7) AppleWebKit/537.36 (KHTML, like Gecko) Chrome/120.0.0.0 Safari/537.36" etag="EYLdyDGCxn-AfTTafx-G" version="22.1.11" type="device">
  <diagram name="Page-1" id="HPwTvvIQz0ysrUD48rti">
    <mxGraphModel dx="1804" dy="500" grid="1" gridSize="10" guides="1" tooltips="1" connect="1" arrows="1" fold="1" page="1" pageScale="1" pageWidth="850" pageHeight="1100" math="0" shadow="0">
      <root>
        <mxCell id="0" />
        <mxCell id="1" parent="0" />
        <mxCell id="78BeBgtR93xhc6kY2Vum-19" style="edgeStyle=orthogonalEdgeStyle;rounded=0;orthogonalLoop=1;jettySize=auto;html=1;shape=link;fillColor=#fff2cc;strokeColor=#d6b656;entryX=0.55;entryY=0.95;entryDx=0;entryDy=0;entryPerimeter=0;exitX=0.013;exitY=0.294;exitDx=0;exitDy=0;exitPerimeter=0;" edge="1" parent="1" source="78BeBgtR93xhc6kY2Vum-32" target="78BeBgtR93xhc6kY2Vum-10">
          <mxGeometry relative="1" as="geometry">
            <mxPoint x="318" y="485" as="sourcePoint" />
            <mxPoint x="108" y="320" as="targetPoint" />
            <Array as="points">
              <mxPoint x="-68" y="500" />
              <mxPoint x="-70" y="500" />
              <mxPoint x="-70" y="375" />
            </Array>
          </mxGeometry>
        </mxCell>
        <mxCell id="78BeBgtR93xhc6kY2Vum-20" value="&lt;font style=&quot;font-size: 13px;&quot;&gt;request LineRef Info&lt;/font&gt;" style="edgeLabel;html=1;align=center;verticalAlign=middle;resizable=0;points=[];" vertex="1" connectable="0" parent="78BeBgtR93xhc6kY2Vum-19">
          <mxGeometry x="-0.0704" relative="1" as="geometry">
            <mxPoint x="25" as="offset" />
          </mxGeometry>
        </mxCell>
        <mxCell id="78BeBgtR93xhc6kY2Vum-2" value="&lt;font style=&quot;font-size: 17px;&quot;&gt;user&lt;/font&gt;" style="ellipse;whiteSpace=wrap;html=1;" vertex="1" parent="1">
          <mxGeometry x="420" y="800" width="220" height="60" as="geometry" />
        </mxCell>
        <mxCell id="78BeBgtR93xhc6kY2Vum-10" value="&lt;meta charset=&quot;utf-8&quot;&gt;&lt;span style=&quot;color: rgb(0, 0, 0); font-family: Helvetica; font-size: 12px; font-style: normal; font-variant-ligatures: normal; font-variant-caps: normal; font-weight: 400; letter-spacing: normal; orphans: 2; text-align: center; text-indent: 0px; text-transform: none; widows: 2; word-spacing: 0px; -webkit-text-stroke-width: 0px; background-color: rgb(251, 251, 251); text-decoration-thickness: initial; text-decoration-style: initial; text-decoration-color: initial; float: none; display: inline !important;&quot;&gt;GOV liveServer&lt;/span&gt;" style="ellipse;shape=cloud;whiteSpace=wrap;html=1;" vertex="1" parent="1">
          <mxGeometry x="-70" y="280" width="160" height="100" as="geometry" />
        </mxCell>
        <mxCell id="78BeBgtR93xhc6kY2Vum-17" style="edgeStyle=orthogonalEdgeStyle;rounded=0;orthogonalLoop=1;jettySize=auto;html=1;entryX=0.5;entryY=1;entryDx=0;entryDy=0;shape=link;fillColor=#fff2cc;strokeColor=#d6b656;" edge="1" parent="1" source="78BeBgtR93xhc6kY2Vum-2" target="78BeBgtR93xhc6kY2Vum-27">
          <mxGeometry relative="1" as="geometry">
            <mxPoint x="365" y="540.99" as="targetPoint" />
            <Array as="points">
              <mxPoint x="510" y="625" />
              <mxPoint x="375" y="625" />
            </Array>
          </mxGeometry>
        </mxCell>
        <mxCell id="78BeBgtR93xhc6kY2Vum-18" value="&lt;font style=&quot;font-size: 13px;&quot;&gt;request tacking for LineRef&lt;/font&gt;" style="edgeLabel;html=1;align=center;verticalAlign=middle;resizable=0;points=[];" vertex="1" connectable="0" parent="78BeBgtR93xhc6kY2Vum-17">
          <mxGeometry x="0.3525" y="-2" relative="1" as="geometry">
            <mxPoint x="73" y="7" as="offset" />
          </mxGeometry>
        </mxCell>
        <mxCell id="78BeBgtR93xhc6kY2Vum-25" value="&lt;font style=&quot;font-size: 18px;&quot;&gt;&lt;b&gt;Tahbura flow&lt;/b&gt;&lt;/font&gt;" style="text;html=1;strokeColor=none;fillColor=none;align=center;verticalAlign=middle;whiteSpace=wrap;rounded=0;" vertex="1" parent="1">
          <mxGeometry y="10" width="850" height="30" as="geometry" />
        </mxCell>
        <mxCell id="78BeBgtR93xhc6kY2Vum-26" value="kubernetes" style="swimlane;strokeColor=#d79b00;fillColor=#ffe6cc;" vertex="1" parent="1">
          <mxGeometry x="240" y="320" width="630" height="230" as="geometry" />
        </mxCell>
        <mxCell id="78BeBgtR93xhc6kY2Vum-22" value="&lt;font style=&quot;font-size: 14px;&quot;&gt;stationsDB&lt;/font&gt;" style="shape=cylinder3;whiteSpace=wrap;html=1;boundedLbl=1;backgroundOutline=1;size=15;" vertex="1" parent="78BeBgtR93xhc6kY2Vum-26">
          <mxGeometry x="430" y="60" width="110" height="90" as="geometry" />
        </mxCell>
        <mxCell id="78BeBgtR93xhc6kY2Vum-27" value="Server&amp;nbsp;&lt;span style=&quot;border-color: var(--border-color); font-size: 17px; background-color: initial;&quot;&gt;API&lt;/span&gt;" style="rounded=0;whiteSpace=wrap;html=1;" vertex="1" parent="78BeBgtR93xhc6kY2Vum-26">
          <mxGeometry x="45" y="70" width="120" height="60" as="geometry" />
        </mxCell>
        <mxCell id="78BeBgtR93xhc6kY2Vum-14" style="rounded=0;orthogonalLoop=1;jettySize=auto;html=1;strokeColor=#B8004A;endArrow=classic;endFill=1;edgeStyle=orthogonalEdgeStyle;shape=link;entryX=0.5;entryY=1;entryDx=0;entryDy=0;entryPerimeter=0;exitX=1;exitY=0.5;exitDx=0;exitDy=0;" edge="1" parent="78BeBgtR93xhc6kY2Vum-26" source="78BeBgtR93xhc6kY2Vum-27" target="78BeBgtR93xhc6kY2Vum-22">
          <mxGeometry relative="1" as="geometry">
            <mxPoint x="173" y="165" as="sourcePoint" />
            <mxPoint x="473" y="10" as="targetPoint" />
          </mxGeometry>
        </mxCell>
        <mxCell id="78BeBgtR93xhc6kY2Vum-15" value="&lt;font style=&quot;font-size: 13px;&quot;&gt;gets the nearest station by location&lt;/font&gt;" style="edgeLabel;html=1;align=center;verticalAlign=middle;resizable=0;points=[];" vertex="1" connectable="0" parent="78BeBgtR93xhc6kY2Vum-14">
          <mxGeometry x="-0.3154" y="-1" relative="1" as="geometry">
            <mxPoint as="offset" />
          </mxGeometry>
        </mxCell>
        <mxCell id="78BeBgtR93xhc6kY2Vum-29" style="edgeStyle=orthogonalEdgeStyle;rounded=0;orthogonalLoop=1;jettySize=auto;html=1;shape=link;fillColor=#f8cecc;strokeColor=#b85450;entryX=0.113;entryY=0.992;entryDx=0;entryDy=0;entryPerimeter=0;" edge="1" parent="1" source="78BeBgtR93xhc6kY2Vum-2" target="78BeBgtR93xhc6kY2Vum-27">
          <mxGeometry relative="1" as="geometry">
            <mxPoint x="330" y="460" as="targetPoint" />
            <Array as="points">
              <mxPoint x="329" y="830" />
              <mxPoint x="329" y="625" />
              <mxPoint x="330" y="625" />
              <mxPoint x="330" y="450" />
            </Array>
          </mxGeometry>
        </mxCell>
        <mxCell id="78BeBgtR93xhc6kY2Vum-30" value="&lt;font style=&quot;font-size: 13px;&quot;&gt;request for nearest station&lt;/font&gt;" style="edgeLabel;html=1;align=center;verticalAlign=middle;resizable=0;points=[];" vertex="1" connectable="0" parent="78BeBgtR93xhc6kY2Vum-29">
          <mxGeometry x="-0.4233" y="-4" relative="1" as="geometry">
            <mxPoint as="offset" />
          </mxGeometry>
        </mxCell>
        <mxCell id="78BeBgtR93xhc6kY2Vum-32" value="whitelist vpn for Gov" style="ellipse;whiteSpace=wrap;html=1;" vertex="1" parent="1">
          <mxGeometry x="-70" y="620" width="120" height="80" as="geometry" />
        </mxCell>
        <mxCell id="78BeBgtR93xhc6kY2Vum-33" style="edgeStyle=orthogonalEdgeStyle;rounded=0;orthogonalLoop=1;jettySize=auto;html=1;exitX=0;exitY=0.75;exitDx=0;exitDy=0;entryX=1;entryY=0.5;entryDx=0;entryDy=0;shape=link;fillColor=#fff2cc;strokeColor=#d6b656;" edge="1" parent="1" source="78BeBgtR93xhc6kY2Vum-27" target="78BeBgtR93xhc6kY2Vum-32">
          <mxGeometry relative="1" as="geometry" />
        </mxCell>
      </root>
    </mxGraphModel>
  </diagram>
</mxfile>
